<svg viewBox="0 0 167.79 59" xmlns="http://www.w3.org/2000/svg"><g fill="#fff" transform="translate(-.91)"><path d="m30.41 0a29.5 29.5 0 1 0 29.5 29.5 29.5 29.5 0 0 0 -29.5-29.5m11.3 43.34a5.41 5.41 0 0 1 -2.24.75 11.27 11.27 0 0 1 -4.29-.2 4.31 4.31 0 0 1 -3.18-3.06 4.57 4.57 0 0 1 .7-4.25 4.3 4.3 0 0 1 1.9-1.4 6.06 6.06 0 0 1 2.37-.49h3 .38c.7 0 1.52-.21 1.52-1.07v-11.57h-18.59v20.58a5.8 5.8 0 0 1 -2.61 4.7 5.55 5.55 0 0 1 -2.24.74 11.53 11.53 0 0 1 -4.3-.19 4.36 4.36 0 0 1 -3.22-3.06 4.59 4.59 0 0 1 .71-4.26 4.26 4.26 0 0 1 1.9-1.4 6.06 6.06 0 0 1 2.37-.49h3 .37c.69 0 1.51-.21 1.53-1v-16.89a.49.49 0 0 1 0-.12 1.16 1.16 0 0 1 .21-.66l.05-.06 10.59-10.42a1.28 1.28 0 0 1 1.78 0l10.52 10.36.06.12a1.16 1.16 0 0 1 .28.68.49.49 0 0 1 0 .12v17.85a5.78 5.78 0 0 1 -2.61 4.69"/><path d="m65.05 21.27a1.28 1.28 0 0 1 1.28-1.27h.27a1.35 1.35 0 0 1 1.18.68l4.39 6.87 4.41-6.89a1.29 1.29 0 0 1 1.16-.66h.26a1.28 1.28 0 0 1 1.28 1.28v12.12a1.26 1.26 0 0 1 -1.28 1.27 1.28 1.28 0 0 1 -1.27-1.27v-8.69l-3.53 5.29a1.19 1.19 0 0 1 -2.13 0l-3.52-5.28v8.67a1.24 1.24 0 0 1 -1.26 1.25 1.22 1.22 0 0 1 -1.24-1.25z"/><path d="m81.76 28.41v-7.18a1.27 1.27 0 0 1 2.54 0v7.08c0 2.69 1.39 4.12 3.66 4.12s3.65-1.35 3.65-4v-7.2a1.27 1.27 0 0 1 2.54 0v7.06c0 4.33-2.44 6.5-6.23 6.5s-6.16-2.17-6.16-6.38"/><path d="m96.24 33a1.2 1.2 0 0 1 .76-2.21 1.18 1.18 0 0 1 .74.23 6.31 6.31 0 0 0 4.06 1.49c1.57 0 2.57-.74 2.57-1.82 0-1-.58-1.59-3.27-2.22-3.09-.74-4.83-1.65-4.83-4.32 0-2.49 2.07-4.21 5-4.21a8 8 0 0 1 4.6 1.35 1.14 1.14 0 0 1 .56 1 1.18 1.18 0 0 1 -1.21 1.18 1.28 1.28 0 0 1 -.66-.18 6 6 0 0 0 -3.33-1.1c-1.49 0-2.36.77-2.36 1.72 0 1.12.66 1.61 3.46 2.28 3.06.74 4.63 1.84 4.63 4.24 0 2.71-2.13 4.33-5.17 4.33a9 9 0 0 1 -5.55-1.76"/><path d="m109 21.23a1.27 1.27 0 0 1 2.54 0v12.17a1.27 1.27 0 1 1 -2.54 0z"/><path d="m113.72 27.36a7.33 7.33 0 0 1 7.47-7.5 7.65 7.65 0 0 1 5 1.64 1.28 1.28 0 0 1 .5 1 1.28 1.28 0 0 1 -2 1 5.26 5.26 0 0 0 -3.46-1.31 4.88 4.88 0 0 0 -4.78 5.11v.05a4.88 4.88 0 0 0 4.78 5.13 5.18 5.18 0 0 0 3.62-1.39 1.19 1.19 0 0 1 2 .89 1.19 1.19 0 0 1 -.42.91 7.39 7.39 0 0 1 -5.25 2 7.28 7.28 0 0 1 -7.37-7.45"/><path d="m127.77 32.91 5.38-12a1.63 1.63 0 0 1 1.54-1h.12a1.59 1.59 0 0 1 1.51 1l5.38 12a1 1 0 0 1 .15.53 1.2 1.2 0 0 1 -1.2 1.23 1.31 1.31 0 0 1 -1.24-.89l-1.18-2.72h-7l-1.23 2.8a1.22 1.22 0 0 1 -1.18.81 1.16 1.16 0 0 1 -1.18-1.18 1.3 1.3 0 0 1 .16-.58m9.48-4.1-2.57-5.81-2.55 5.86z"/><path d="m143 33a1.21 1.21 0 0 1 -.5-1 1.19 1.19 0 0 1 1.2-1.18 1.21 1.21 0 0 1 .75.23 6.29 6.29 0 0 0 4.06 1.49c1.57 0 2.56-.74 2.56-1.82 0-1-.58-1.59-3.27-2.22-3.08-.74-4.82-1.65-4.82-4.32 0-2.49 2.07-4.21 5-4.21a8 8 0 0 1 4.59 1.35 1.14 1.14 0 0 1 .56 1 1.18 1.18 0 0 1 -1.2 1.18 1.23 1.23 0 0 1 -.66-.18 6 6 0 0 0 -3.34-1.1c-1.48 0-2.35.77-2.35 1.72 0 1.12.66 1.61 3.45 2.28 3.07.74 4.64 1.84 4.64 4.24 0 2.71-2.13 4.33-5.18 4.33a9 9 0 0 1 -5.49-1.79"/><path d="m154.62 32.91 5.38-12a1.64 1.64 0 0 1 1.54-1h.12a1.59 1.59 0 0 1 1.51 1l5.38 12a1 1 0 0 1 .15.53 1.2 1.2 0 0 1 -1.2 1.23 1.31 1.31 0 0 1 -1.24-.89l-1.18-2.72h-7l-1.22 2.8a1.22 1.22 0 0 1 -1.18.81 1.16 1.16 0 0 1 -1.18-1.18 1.3 1.3 0 0 1 .16-.58m9.48-4.1-2.58-5.81-2.56 5.81z"/></g></svg>