<?xml version="1.0" standalone="no"?>
<!DOCTYPE svg PUBLIC "-//W3C//DTD SVG 20010904//EN"
 "http://www.w3.org/TR/2001/REC-SVG-20010904/DTD/svg10.dtd">
<svg version="1.0" xmlns="http://www.w3.org/2000/svg"
 width="1401.000000pt" height="1401.000000pt" viewBox="0 0 1401.000000 1401.000000"
 preserveAspectRatio="xMidYMid meet">
<metadata>
Created by potrace 1.11, written by Peter Selinger 2001-2013
</metadata>
<g transform="translate(0.000000,1401.000000) scale(0.100000,-0.100000)"
fill="#000000" stroke="none">
<path d="M6868 13325 c-2 -1 -79 -5 -173 -9 -93 -4 -183 -8 -200 -11 -16 -2
-60 -6 -97 -9 -36 -3 -84 -8 -105 -11 -21 -2 -56 -7 -78 -9 -50 -6 -303 -44
-331 -50 -12 -2 -37 -7 -55 -10 -19 -3 -86 -17 -149 -31 -63 -14 -126 -28
-140 -31 -50 -11 -187 -47 -270 -71 -47 -13 -92 -26 -100 -28 -23 -5 -262 -84
-285 -94 -11 -5 -45 -17 -75 -29 -89 -32 -193 -73 -225 -87 -16 -7 -84 -37
-150 -66 -552 -240 -1138 -618 -1623 -1046 -86 -75 -416 -403 -505 -502 -370
-408 -744 -961 -976 -1446 -24 -49 -54 -112 -67 -138 -13 -27 -24 -55 -24 -63
0 -8 -4 -14 -10 -14 -5 0 -10 -7 -10 -16 0 -9 -7 -28 -15 -42 -36 -64 -187
-471 -234 -632 -11 -36 -31 -104 -45 -151 -33 -113 -113 -447 -120 -505 -2
-16 -11 -63 -19 -104 -9 -41 -19 -97 -22 -125 -4 -27 -9 -59 -10 -70 -2 -11
-6 -45 -9 -75 -4 -30 -9 -62 -11 -70 -2 -8 -6 -46 -10 -85 -3 -38 -8 -88 -10
-110 -15 -142 -19 -249 -20 -565 0 -309 6 -482 20 -595 2 -16 7 -57 10 -90 22
-222 50 -393 121 -740 4 -22 63 -247 89 -340 28 -103 105 -334 160 -480 398
-1053 1105 -2024 1970 -2705 39 -30 75 -59 82 -65 30 -25 147 -113 188 -140
17 -12 73 -51 125 -87 100 -68 336 -218 345 -218 3 0 22 -11 43 -24 163 -106
588 -309 902 -431 192 -75 559 -192 660 -211 14 -3 34 -8 45 -11 11 -4 25 -8
30 -9 6 -1 60 -13 120 -27 137 -32 213 -47 305 -62 25 -4 54 -9 65 -11 11 -2
40 -7 65 -10 25 -3 52 -8 60 -9 9 -2 43 -6 75 -10 33 -4 68 -9 77 -11 9 -1 48
-5 85 -9 37 -3 84 -8 103 -10 116 -14 273 -19 560 -19 351 -1 484 6 770 40 52
6 243 33 280 40 14 3 40 7 57 9 18 3 52 9 75 14 24 6 58 12 76 16 27 4 127 25
192 40 143 32 422 112 601 173 173 60 298 108 529 207 44 19 460 227 490 245
8 5 94 56 191 114 208 124 457 293 599 406 221 177 251 202 405 340 84 76 366
360 440 444 39 44 77 87 85 96 27 28 185 223 251 310 151 199 332 470 427 640
14 25 33 59 43 75 10 17 25 44 33 61 8 17 19 35 25 38 6 4 11 16 11 26 0 10 3
20 8 22 9 4 159 307 197 398 15 36 38 89 51 118 13 29 24 54 24 57 0 2 5 16
12 32 6 15 12 30 13 33 1 3 9 23 19 45 22 50 150 430 171 510 57 207 58 211
95 370 16 72 32 150 36 175 3 25 8 47 9 50 4 7 31 161 40 230 3 25 8 56 10 70
2 14 7 50 10 80 4 30 8 66 10 80 21 165 38 489 38 705 0 153 -10 421 -18 495
-2 19 -6 71 -10 115 -3 44 -8 91 -10 105 -10 74 -15 110 -20 160 -4 30 -8 62
-10 70 -2 8 -7 33 -10 55 -3 23 -8 52 -10 65 -3 14 -7 39 -10 55 -2 17 -9 55
-15 85 -6 30 -14 69 -17 85 -2 17 -18 86 -35 155 -17 69 -32 132 -33 140 -2 8
-4 15 -5 15 -1 0 -3 11 -6 25 -18 99 -175 570 -249 745 -200 474 -379 809
-633 1185 -64 94 -279 385 -304 411 -7 8 -37 43 -67 79 -479 581 -1100 1097
-1786 1481 -137 77 -503 259 -520 259 -4 0 -32 12 -63 26 -98 45 -113 51 -292
117 -337 124 -657 214 -1006 281 -87 17 -307 51 -399 62 -33 3 -68 8 -77 10
-9 1 -52 6 -95 9 -43 4 -94 8 -113 10 -124 12 -633 28 -642 20z"/>
</g>
</svg>
